<svg xmlns="http://www.w3.org/2000/svg" xmlns:xlink="http://www.w3.org/1999/xlink" width="1080" zoomAndPan="magnify" viewBox="0 0 810 809.999993" height="1080" preserveAspectRatio="xMidYMid meet" version="1.0"><defs><filter x="0%" y="0%" width="100%" height="100%" id="16e914d0e0"><feColorMatrix values="0 0 0 0 1 0 0 0 0 1 0 0 0 0 1 0 0 0 1 0" color-interpolation-filters="sRGB"/></filter><mask id="9a84f2cab6"><g filter="url(#16e914d0e0)"><rect x="-81" width="972" fill="#000000" y="-80.999999" height="971.999992" fill-opacity="0.15"/></g></mask><clipPath id="4616418d60"><path d="M 0.3125 0.523438 L 15.421875 0.523438 L 15.421875 15.882812 L 0.3125 15.882812 Z M 0.3125 0.523438 " clip-rule="nonzero"/></clipPath><clipPath id="72aa4f4208"><rect x="0" width="16" y="0" height="17"/></clipPath><mask id="7bbde6ad1e"><g filter="url(#16e914d0e0)"><rect x="-81" width="972" fill="#000000" y="-80.999999" height="971.999992" fill-opacity="0.15"/></g></mask><clipPath id="1a06244aec"><path d="M 0.269531 0.828125 L 15.378906 0.828125 L 15.378906 16.1875 L 0.269531 16.1875 Z M 0.269531 0.828125 " clip-rule="nonzero"/></clipPath><clipPath id="ce7222ac31"><rect x="0" width="16" y="0" height="17"/></clipPath><mask id="4a9c5eb729"><g filter="url(#16e914d0e0)"><rect x="-81" width="972" fill="#000000" y="-80.999999" height="971.999992" fill-opacity="0.15"/></g></mask><clipPath id="72a78e7d6f"><path d="M 0.269531 0.21875 L 15.378906 0.21875 L 15.378906 15.578125 L 0.269531 15.578125 Z M 0.269531 0.21875 " clip-rule="nonzero"/></clipPath><clipPath id="b0262eaef3"><rect x="0" width="16" y="0" height="16"/></clipPath><mask id="023ff53f05"><g filter="url(#16e914d0e0)"><rect x="-81" width="972" fill="#000000" y="-80.999999" height="971.999992" fill-opacity="0.15"/></g></mask><clipPath id="a205f237a2"><path d="M 0.222656 0.527344 L 15.332031 0.527344 L 15.332031 15.882812 L 0.222656 15.882812 Z M 0.222656 0.527344 " clip-rule="nonzero"/></clipPath><clipPath id="6ed626301c"><rect x="0" width="16" y="0" height="17"/></clipPath><mask id="f0c5e9ecd2"><g filter="url(#16e914d0e0)"><rect x="-81" width="972" fill="#000000" y="-80.999999" height="971.999992" fill-opacity="0.15"/></g></mask><clipPath id="8a03560f60"><path d="M 1.042969 0.523438 L 16.15625 0.523438 L 16.15625 15.882812 L 1.042969 15.882812 Z M 1.042969 0.523438 " clip-rule="nonzero"/></clipPath><clipPath id="f6efbe2401"><rect x="0" width="17" y="0" height="17"/></clipPath><mask id="d52f21ab18"><g filter="url(#16e914d0e0)"><rect x="-81" width="972" fill="#000000" y="-80.999999" height="971.999992" fill-opacity="0.15"/></g></mask><clipPath id="502dbf4cbe"><path d="M 1 0.828125 L 16.109375 0.828125 L 16.109375 16.1875 L 1 16.1875 Z M 1 0.828125 " clip-rule="nonzero"/></clipPath><clipPath id="2aaca2edd5"><rect x="0" width="17" y="0" height="17"/></clipPath><mask id="c99b3a367e"><g filter="url(#16e914d0e0)"><rect x="-81" width="972" fill="#000000" y="-80.999999" height="971.999992" fill-opacity="0.15"/></g></mask><clipPath id="5a0dde20a6"><path d="M 1 0.21875 L 16.109375 0.21875 L 16.109375 15.578125 L 1 15.578125 Z M 1 0.21875 " clip-rule="nonzero"/></clipPath><clipPath id="846389ad42"><rect x="0" width="17" y="0" height="16"/></clipPath><mask id="3518676590"><g filter="url(#16e914d0e0)"><rect x="-81" width="972" fill="#000000" y="-80.999999" height="971.999992" fill-opacity="0.15"/></g></mask><clipPath id="19f747d97b"><path d="M 0.957031 0.527344 L 16.066406 0.527344 L 16.066406 15.882812 L 0.957031 15.882812 Z M 0.957031 0.527344 " clip-rule="nonzero"/></clipPath><clipPath id="e1cb4446ca"><rect x="0" width="17" y="0" height="17"/></clipPath><mask id="42645ccc4d"><g filter="url(#16e914d0e0)"><rect x="-81" width="972" fill="#000000" y="-80.999999" height="971.999992" fill-opacity="0.15"/></g></mask><clipPath id="75d8f68e77"><path d="M 0.890625 0.523438 L 16 0.523438 L 16 15.882812 L 0.890625 15.882812 Z M 0.890625 0.523438 " clip-rule="nonzero"/></clipPath><clipPath id="32934d9e5b"><rect x="0" width="17" y="0" height="17"/></clipPath><mask id="e8bb76972c"><g filter="url(#16e914d0e0)"><rect x="-81" width="972" fill="#000000" y="-80.999999" height="971.999992" fill-opacity="0.15"/></g></mask><clipPath id="3521f2d224"><path d="M 0.84375 0.828125 L 15.957031 0.828125 L 15.957031 16.1875 L 0.84375 16.1875 Z M 0.84375 0.828125 " clip-rule="nonzero"/></clipPath><clipPath id="a7305b80ae"><rect x="0" width="17" y="0" height="17"/></clipPath><mask id="953af3e563"><g filter="url(#16e914d0e0)"><rect x="-81" width="972" fill="#000000" y="-80.999999" height="971.999992" fill-opacity="0.15"/></g></mask><clipPath id="f06dc5a9c4"><path d="M 0.84375 0.21875 L 15.957031 0.21875 L 15.957031 15.578125 L 0.84375 15.578125 Z M 0.84375 0.21875 " clip-rule="nonzero"/></clipPath><clipPath id="30582e8705"><rect x="0" width="17" y="0" height="16"/></clipPath><mask id="23d7d93016"><g filter="url(#16e914d0e0)"><rect x="-81" width="972" fill="#000000" y="-80.999999" height="971.999992" fill-opacity="0.15"/></g></mask><clipPath id="bceadb7b0f"><path d="M 0.800781 0.527344 L 15.910156 0.527344 L 15.910156 15.882812 L 0.800781 15.882812 Z M 0.800781 0.527344 " clip-rule="nonzero"/></clipPath><clipPath id="3e738ef46d"><rect x="0" width="17" y="0" height="17"/></clipPath><mask id="94a37e4d1b"><g filter="url(#16e914d0e0)"><rect x="-81" width="972" fill="#000000" y="-80.999999" height="971.999992" fill-opacity="0.15"/></g></mask><clipPath id="b959a6e665"><path d="M 0.667969 0.523438 L 15.777344 0.523438 L 15.777344 15.882812 L 0.667969 15.882812 Z M 0.667969 0.523438 " clip-rule="nonzero"/></clipPath><clipPath id="d769fdf42e"><rect x="0" width="16" y="0" height="17"/></clipPath><mask id="4bfaaa615c"><g filter="url(#16e914d0e0)"><rect x="-81" width="972" fill="#000000" y="-80.999999" height="971.999992" fill-opacity="0.15"/></g></mask><clipPath id="e380c5804d"><path d="M 0.621094 0.828125 L 15.730469 0.828125 L 15.730469 16.1875 L 0.621094 16.1875 Z M 0.621094 0.828125 " clip-rule="nonzero"/></clipPath><clipPath id="35a10b6693"><rect x="0" width="16" y="0" height="17"/></clipPath><mask id="b37a1d1bbf"><g filter="url(#16e914d0e0)"><rect x="-81" width="972" fill="#000000" y="-80.999999" height="971.999992" fill-opacity="0.15"/></g></mask><clipPath id="3bb8b42206"><path d="M 0.621094 0.21875 L 15.730469 0.21875 L 15.730469 15.578125 L 0.621094 15.578125 Z M 0.621094 0.21875 " clip-rule="nonzero"/></clipPath><clipPath id="9f51d455f9"><rect x="0" width="16" y="0" height="16"/></clipPath><mask id="20c4cf0eaf"><g filter="url(#16e914d0e0)"><rect x="-81" width="972" fill="#000000" y="-80.999999" height="971.999992" fill-opacity="0.15"/></g></mask><clipPath id="aad6b4bd02"><path d="M 0.578125 0.527344 L 15.6875 0.527344 L 15.6875 15.882812 L 0.578125 15.882812 Z M 0.578125 0.527344 " clip-rule="nonzero"/></clipPath><clipPath id="aaf05b596f"><rect x="0" width="16" y="0" height="17"/></clipPath></defs><g mask="url(#9a84f2cab6)"><g transform="matrix(1, 0, 0, 1, 93, 91)"><g clip-path="url(#72aa4f4208)"><g clip-path="url(#4616418d60)"><path fill="#ffffff" d="M 0.3125 0.523438 L 15.421875 0.523438 L 15.421875 15.871094 L 0.3125 15.871094 Z M 0.3125 0.523438 " fill-opacity="1" fill-rule="nonzero"/></g></g></g></g><g mask="url(#7bbde6ad1e)"><g transform="matrix(1, 0, 0, 1, 93, 498)"><g clip-path="url(#ce7222ac31)"><g clip-path="url(#1a06244aec)"><path fill="#ffffff" d="M 0.269531 0.828125 L 15.378906 0.828125 L 15.378906 16.175781 L 0.269531 16.175781 Z M 0.269531 0.828125 " fill-opacity="1" fill-rule="nonzero"/></g></g></g></g><g mask="url(#4a9c5eb729)"><g transform="matrix(1, 0, 0, 1, 93, 295)"><g clip-path="url(#b0262eaef3)"><g clip-path="url(#72a78e7d6f)"><path fill="#ffffff" d="M 0.269531 0.21875 L 15.378906 0.21875 L 15.378906 15.566406 L 0.269531 15.566406 Z M 0.269531 0.21875 " fill-opacity="1" fill-rule="nonzero"/></g></g></g></g><g mask="url(#023ff53f05)"><g transform="matrix(1, 0, 0, 1, 93, 702)"><g clip-path="url(#6ed626301c)"><g clip-path="url(#a205f237a2)"><path fill="#ffffff" d="M 0.222656 0.527344 L 15.332031 0.527344 L 15.332031 15.871094 L 0.222656 15.871094 Z M 0.222656 0.527344 " fill-opacity="1" fill-rule="nonzero"/></g></g></g></g><g mask="url(#f0c5e9ecd2)"><g transform="matrix(1, 0, 0, 1, 295, 91)"><g clip-path="url(#f6efbe2401)"><g clip-path="url(#8a03560f60)"><path fill="#ffffff" d="M 1.042969 0.523438 L 16.15625 0.523438 L 16.15625 15.871094 L 1.042969 15.871094 Z M 1.042969 0.523438 " fill-opacity="1" fill-rule="nonzero"/></g></g></g></g><g mask="url(#d52f21ab18)"><g transform="matrix(1, 0, 0, 1, 295, 498)"><g clip-path="url(#2aaca2edd5)"><g clip-path="url(#502dbf4cbe)"><path fill="#ffffff" d="M 1 0.828125 L 16.109375 0.828125 L 16.109375 16.175781 L 1 16.175781 Z M 1 0.828125 " fill-opacity="1" fill-rule="nonzero"/></g></g></g></g><g mask="url(#c99b3a367e)"><g transform="matrix(1, 0, 0, 1, 295, 295)"><g clip-path="url(#846389ad42)"><g clip-path="url(#5a0dde20a6)"><path fill="#ffffff" d="M 1 0.21875 L 16.109375 0.21875 L 16.109375 15.566406 L 1 15.566406 Z M 1 0.21875 " fill-opacity="1" fill-rule="nonzero"/></g></g></g></g><g mask="url(#3518676590)"><g transform="matrix(1, 0, 0, 1, 295, 702)"><g clip-path="url(#e1cb4446ca)"><g clip-path="url(#19f747d97b)"><path fill="#ffffff" d="M 0.957031 0.527344 L 16.066406 0.527344 L 16.066406 15.871094 L 0.957031 15.871094 Z M 0.957031 0.527344 " fill-opacity="1" fill-rule="nonzero"/></g></g></g></g><g mask="url(#42645ccc4d)"><g transform="matrix(1, 0, 0, 1, 498, 91)"><g clip-path="url(#32934d9e5b)"><g clip-path="url(#75d8f68e77)"><path fill="#ffffff" d="M 0.890625 0.523438 L 16 0.523438 L 16 15.871094 L 0.890625 15.871094 Z M 0.890625 0.523438 " fill-opacity="1" fill-rule="nonzero"/></g></g></g></g><g mask="url(#e8bb76972c)"><g transform="matrix(1, 0, 0, 1, 498, 498)"><g clip-path="url(#a7305b80ae)"><g clip-path="url(#3521f2d224)"><path fill="#ffffff" d="M 0.84375 0.828125 L 15.957031 0.828125 L 15.957031 16.175781 L 0.84375 16.175781 Z M 0.84375 0.828125 " fill-opacity="1" fill-rule="nonzero"/></g></g></g></g><g mask="url(#953af3e563)"><g transform="matrix(1, 0, 0, 1, 498, 295)"><g clip-path="url(#30582e8705)"><g clip-path="url(#f06dc5a9c4)"><path fill="#ffffff" d="M 0.84375 0.21875 L 15.957031 0.21875 L 15.957031 15.566406 L 0.84375 15.566406 Z M 0.84375 0.21875 " fill-opacity="1" fill-rule="nonzero"/></g></g></g></g><g mask="url(#23d7d93016)"><g transform="matrix(1, 0, 0, 1, 498, 702)"><g clip-path="url(#3e738ef46d)"><g clip-path="url(#bceadb7b0f)"><path fill="#ffffff" d="M 0.800781 0.527344 L 15.910156 0.527344 L 15.910156 15.871094 L 0.800781 15.871094 Z M 0.800781 0.527344 " fill-opacity="1" fill-rule="nonzero"/></g></g></g></g><g mask="url(#94a37e4d1b)"><g transform="matrix(1, 0, 0, 1, 701, 91)"><g clip-path="url(#d769fdf42e)"><g clip-path="url(#b959a6e665)"><path fill="#ffffff" d="M 0.667969 0.523438 L 15.777344 0.523438 L 15.777344 15.871094 L 0.667969 15.871094 Z M 0.667969 0.523438 " fill-opacity="1" fill-rule="nonzero"/></g></g></g></g><g mask="url(#4bfaaa615c)"><g transform="matrix(1, 0, 0, 1, 701, 498)"><g clip-path="url(#35a10b6693)"><g clip-path="url(#e380c5804d)"><path fill="#ffffff" d="M 0.621094 0.828125 L 15.730469 0.828125 L 15.730469 16.175781 L 0.621094 16.175781 Z M 0.621094 0.828125 " fill-opacity="1" fill-rule="nonzero"/></g></g></g></g><g mask="url(#b37a1d1bbf)"><g transform="matrix(1, 0, 0, 1, 701, 295)"><g clip-path="url(#9f51d455f9)"><g clip-path="url(#3bb8b42206)"><path fill="#ffffff" d="M 0.621094 0.21875 L 15.730469 0.21875 L 15.730469 15.566406 L 0.621094 15.566406 Z M 0.621094 0.21875 " fill-opacity="1" fill-rule="nonzero"/></g></g></g></g><g mask="url(#20c4cf0eaf)"><g transform="matrix(1, 0, 0, 1, 701, 702)"><g clip-path="url(#aaf05b596f)"><g clip-path="url(#aad6b4bd02)"><path fill="#ffffff" d="M 0.578125 0.527344 L 15.6875 0.527344 L 15.6875 15.871094 L 0.578125 15.871094 Z M 0.578125 0.527344 " fill-opacity="1" fill-rule="nonzero"/></g></g></g></g></svg>