<svg xmlns="http://www.w3.org/2000/svg" xmlns:xlink="http://www.w3.org/1999/xlink" width="1080" zoomAndPan="magnify" viewBox="0 0 810 809.999993" height="1080" preserveAspectRatio="xMidYMid meet" version="1.0"><defs><filter x="0%" y="0%" width="100%" height="100%" id="b3e6cc5324"><feColorMatrix values="0 0 0 0 1 0 0 0 0 1 0 0 0 0 1 0 0 0 1 0" color-interpolation-filters="sRGB"/></filter><mask id="cac9c5b350"><g filter="url(#b3e6cc5324)"><rect x="-81" width="972" fill="#000000" y="-80.999999" height="971.999992" fill-opacity="0.2"/></g></mask><clipPath id="5497373949"><path d="M 0.3125 0.523438 L 15.421875 0.523438 L 15.421875 15.882812 L 0.3125 15.882812 Z M 0.3125 0.523438 " clip-rule="nonzero"/></clipPath><clipPath id="b278ec5bab"><rect x="0" width="16" y="0" height="17"/></clipPath><mask id="fb958e5240"><g filter="url(#b3e6cc5324)"><rect x="-81" width="972" fill="#000000" y="-80.999999" height="971.999992" fill-opacity="0.2"/></g></mask><clipPath id="7de4bf2772"><path d="M 0.269531 0.828125 L 15.378906 0.828125 L 15.378906 16.1875 L 0.269531 16.1875 Z M 0.269531 0.828125 " clip-rule="nonzero"/></clipPath><clipPath id="e4acb0d00b"><rect x="0" width="16" y="0" height="17"/></clipPath><mask id="b700206a7b"><g filter="url(#b3e6cc5324)"><rect x="-81" width="972" fill="#000000" y="-80.999999" height="971.999992" fill-opacity="0.2"/></g></mask><clipPath id="c7121b56c7"><path d="M 0.269531 0.21875 L 15.378906 0.21875 L 15.378906 15.578125 L 0.269531 15.578125 Z M 0.269531 0.21875 " clip-rule="nonzero"/></clipPath><clipPath id="38905cfd74"><rect x="0" width="16" y="0" height="16"/></clipPath><mask id="3089cc33de"><g filter="url(#b3e6cc5324)"><rect x="-81" width="972" fill="#000000" y="-80.999999" height="971.999992" fill-opacity="0.2"/></g></mask><clipPath id="7ea324670b"><path d="M 0.222656 0.527344 L 15.332031 0.527344 L 15.332031 15.882812 L 0.222656 15.882812 Z M 0.222656 0.527344 " clip-rule="nonzero"/></clipPath><clipPath id="07d97a9f6b"><rect x="0" width="16" y="0" height="17"/></clipPath><mask id="f59f132956"><g filter="url(#b3e6cc5324)"><rect x="-81" width="972" fill="#000000" y="-80.999999" height="971.999992" fill-opacity="0.2"/></g></mask><clipPath id="70e3476368"><path d="M 1.042969 0.523438 L 16.15625 0.523438 L 16.15625 15.882812 L 1.042969 15.882812 Z M 1.042969 0.523438 " clip-rule="nonzero"/></clipPath><clipPath id="e5fa91c331"><rect x="0" width="17" y="0" height="17"/></clipPath><mask id="ed67e81693"><g filter="url(#b3e6cc5324)"><rect x="-81" width="972" fill="#000000" y="-80.999999" height="971.999992" fill-opacity="0.2"/></g></mask><clipPath id="4304c343d5"><path d="M 1 0.828125 L 16.109375 0.828125 L 16.109375 16.1875 L 1 16.1875 Z M 1 0.828125 " clip-rule="nonzero"/></clipPath><clipPath id="5b33043648"><rect x="0" width="17" y="0" height="17"/></clipPath><mask id="3528ec5735"><g filter="url(#b3e6cc5324)"><rect x="-81" width="972" fill="#000000" y="-80.999999" height="971.999992" fill-opacity="0.2"/></g></mask><clipPath id="d6cf91a331"><path d="M 1 0.21875 L 16.109375 0.21875 L 16.109375 15.578125 L 1 15.578125 Z M 1 0.21875 " clip-rule="nonzero"/></clipPath><clipPath id="a341f51bbd"><rect x="0" width="17" y="0" height="16"/></clipPath><mask id="de058a3eec"><g filter="url(#b3e6cc5324)"><rect x="-81" width="972" fill="#000000" y="-80.999999" height="971.999992" fill-opacity="0.2"/></g></mask><clipPath id="5d296215bd"><path d="M 0.957031 0.527344 L 16.066406 0.527344 L 16.066406 15.882812 L 0.957031 15.882812 Z M 0.957031 0.527344 " clip-rule="nonzero"/></clipPath><clipPath id="cbd603c921"><rect x="0" width="17" y="0" height="17"/></clipPath><mask id="423f3ef48b"><g filter="url(#b3e6cc5324)"><rect x="-81" width="972" fill="#000000" y="-80.999999" height="971.999992" fill-opacity="0.2"/></g></mask><clipPath id="027ba75239"><path d="M 0.890625 0.523438 L 16 0.523438 L 16 15.882812 L 0.890625 15.882812 Z M 0.890625 0.523438 " clip-rule="nonzero"/></clipPath><clipPath id="eee994a041"><rect x="0" width="17" y="0" height="17"/></clipPath><mask id="0d29e99bd9"><g filter="url(#b3e6cc5324)"><rect x="-81" width="972" fill="#000000" y="-80.999999" height="971.999992" fill-opacity="0.2"/></g></mask><clipPath id="517c2047dc"><path d="M 0.84375 0.828125 L 15.957031 0.828125 L 15.957031 16.1875 L 0.84375 16.1875 Z M 0.84375 0.828125 " clip-rule="nonzero"/></clipPath><clipPath id="6d7e8868e8"><rect x="0" width="17" y="0" height="17"/></clipPath><mask id="8d930f5775"><g filter="url(#b3e6cc5324)"><rect x="-81" width="972" fill="#000000" y="-80.999999" height="971.999992" fill-opacity="0.2"/></g></mask><clipPath id="2761fd312e"><path d="M 0.84375 0.21875 L 15.957031 0.21875 L 15.957031 15.578125 L 0.84375 15.578125 Z M 0.84375 0.21875 " clip-rule="nonzero"/></clipPath><clipPath id="edd4d37568"><rect x="0" width="17" y="0" height="16"/></clipPath><mask id="b494578998"><g filter="url(#b3e6cc5324)"><rect x="-81" width="972" fill="#000000" y="-80.999999" height="971.999992" fill-opacity="0.2"/></g></mask><clipPath id="c7042b79db"><path d="M 0.800781 0.527344 L 15.910156 0.527344 L 15.910156 15.882812 L 0.800781 15.882812 Z M 0.800781 0.527344 " clip-rule="nonzero"/></clipPath><clipPath id="0b8191c9cc"><rect x="0" width="17" y="0" height="17"/></clipPath><mask id="48d82f5a12"><g filter="url(#b3e6cc5324)"><rect x="-81" width="972" fill="#000000" y="-80.999999" height="971.999992" fill-opacity="0.2"/></g></mask><clipPath id="9a7ed6b072"><path d="M 0.667969 0.523438 L 15.777344 0.523438 L 15.777344 15.882812 L 0.667969 15.882812 Z M 0.667969 0.523438 " clip-rule="nonzero"/></clipPath><clipPath id="c4d641e5c1"><rect x="0" width="16" y="0" height="17"/></clipPath><mask id="e19e8e7657"><g filter="url(#b3e6cc5324)"><rect x="-81" width="972" fill="#000000" y="-80.999999" height="971.999992" fill-opacity="0.2"/></g></mask><clipPath id="36fe6dd72c"><path d="M 0.621094 0.828125 L 15.730469 0.828125 L 15.730469 16.1875 L 0.621094 16.1875 Z M 0.621094 0.828125 " clip-rule="nonzero"/></clipPath><clipPath id="c9ee4232ff"><rect x="0" width="16" y="0" height="17"/></clipPath><mask id="78204bb201"><g filter="url(#b3e6cc5324)"><rect x="-81" width="972" fill="#000000" y="-80.999999" height="971.999992" fill-opacity="0.2"/></g></mask><clipPath id="3715ebdc4b"><path d="M 0.621094 0.21875 L 15.730469 0.21875 L 15.730469 15.578125 L 0.621094 15.578125 Z M 0.621094 0.21875 " clip-rule="nonzero"/></clipPath><clipPath id="31d5724907"><rect x="0" width="16" y="0" height="16"/></clipPath><mask id="a5230ea502"><g filter="url(#b3e6cc5324)"><rect x="-81" width="972" fill="#000000" y="-80.999999" height="971.999992" fill-opacity="0.2"/></g></mask><clipPath id="4b660b6e01"><path d="M 0.578125 0.527344 L 15.6875 0.527344 L 15.6875 15.882812 L 0.578125 15.882812 Z M 0.578125 0.527344 " clip-rule="nonzero"/></clipPath><clipPath id="ffb87119e1"><rect x="0" width="16" y="0" height="17"/></clipPath></defs><g mask="url(#cac9c5b350)"><g transform="matrix(1, 0, 0, 1, 93, 91)"><g clip-path="url(#b278ec5bab)"><g clip-path="url(#5497373949)"><path fill="#10151d" d="M 0.3125 0.523438 L 15.421875 0.523438 L 15.421875 15.871094 L 0.3125 15.871094 Z M 0.3125 0.523438 " fill-opacity="1" fill-rule="nonzero"/></g></g></g></g><g mask="url(#fb958e5240)"><g transform="matrix(1, 0, 0, 1, 93, 498)"><g clip-path="url(#e4acb0d00b)"><g clip-path="url(#7de4bf2772)"><path fill="#10151d" d="M 0.269531 0.828125 L 15.378906 0.828125 L 15.378906 16.175781 L 0.269531 16.175781 Z M 0.269531 0.828125 " fill-opacity="1" fill-rule="nonzero"/></g></g></g></g><g mask="url(#b700206a7b)"><g transform="matrix(1, 0, 0, 1, 93, 295)"><g clip-path="url(#38905cfd74)"><g clip-path="url(#c7121b56c7)"><path fill="#10151d" d="M 0.269531 0.21875 L 15.378906 0.21875 L 15.378906 15.566406 L 0.269531 15.566406 Z M 0.269531 0.21875 " fill-opacity="1" fill-rule="nonzero"/></g></g></g></g><g mask="url(#3089cc33de)"><g transform="matrix(1, 0, 0, 1, 93, 702)"><g clip-path="url(#07d97a9f6b)"><g clip-path="url(#7ea324670b)"><path fill="#10151d" d="M 0.222656 0.527344 L 15.332031 0.527344 L 15.332031 15.871094 L 0.222656 15.871094 Z M 0.222656 0.527344 " fill-opacity="1" fill-rule="nonzero"/></g></g></g></g><g mask="url(#f59f132956)"><g transform="matrix(1, 0, 0, 1, 295, 91)"><g clip-path="url(#e5fa91c331)"><g clip-path="url(#70e3476368)"><path fill="#10151d" d="M 1.042969 0.523438 L 16.15625 0.523438 L 16.15625 15.871094 L 1.042969 15.871094 Z M 1.042969 0.523438 " fill-opacity="1" fill-rule="nonzero"/></g></g></g></g><g mask="url(#ed67e81693)"><g transform="matrix(1, 0, 0, 1, 295, 498)"><g clip-path="url(#5b33043648)"><g clip-path="url(#4304c343d5)"><path fill="#10151d" d="M 1 0.828125 L 16.109375 0.828125 L 16.109375 16.175781 L 1 16.175781 Z M 1 0.828125 " fill-opacity="1" fill-rule="nonzero"/></g></g></g></g><g mask="url(#3528ec5735)"><g transform="matrix(1, 0, 0, 1, 295, 295)"><g clip-path="url(#a341f51bbd)"><g clip-path="url(#d6cf91a331)"><path fill="#10151d" d="M 1 0.21875 L 16.109375 0.21875 L 16.109375 15.566406 L 1 15.566406 Z M 1 0.21875 " fill-opacity="1" fill-rule="nonzero"/></g></g></g></g><g mask="url(#de058a3eec)"><g transform="matrix(1, 0, 0, 1, 295, 702)"><g clip-path="url(#cbd603c921)"><g clip-path="url(#5d296215bd)"><path fill="#10151d" d="M 0.957031 0.527344 L 16.066406 0.527344 L 16.066406 15.871094 L 0.957031 15.871094 Z M 0.957031 0.527344 " fill-opacity="1" fill-rule="nonzero"/></g></g></g></g><g mask="url(#423f3ef48b)"><g transform="matrix(1, 0, 0, 1, 498, 91)"><g clip-path="url(#eee994a041)"><g clip-path="url(#027ba75239)"><path fill="#10151d" d="M 0.890625 0.523438 L 16 0.523438 L 16 15.871094 L 0.890625 15.871094 Z M 0.890625 0.523438 " fill-opacity="1" fill-rule="nonzero"/></g></g></g></g><g mask="url(#0d29e99bd9)"><g transform="matrix(1, 0, 0, 1, 498, 498)"><g clip-path="url(#6d7e8868e8)"><g clip-path="url(#517c2047dc)"><path fill="#10151d" d="M 0.84375 0.828125 L 15.957031 0.828125 L 15.957031 16.175781 L 0.84375 16.175781 Z M 0.84375 0.828125 " fill-opacity="1" fill-rule="nonzero"/></g></g></g></g><g mask="url(#8d930f5775)"><g transform="matrix(1, 0, 0, 1, 498, 295)"><g clip-path="url(#edd4d37568)"><g clip-path="url(#2761fd312e)"><path fill="#10151d" d="M 0.84375 0.21875 L 15.957031 0.21875 L 15.957031 15.566406 L 0.84375 15.566406 Z M 0.84375 0.21875 " fill-opacity="1" fill-rule="nonzero"/></g></g></g></g><g mask="url(#b494578998)"><g transform="matrix(1, 0, 0, 1, 498, 702)"><g clip-path="url(#0b8191c9cc)"><g clip-path="url(#c7042b79db)"><path fill="#10151d" d="M 0.800781 0.527344 L 15.910156 0.527344 L 15.910156 15.871094 L 0.800781 15.871094 Z M 0.800781 0.527344 " fill-opacity="1" fill-rule="nonzero"/></g></g></g></g><g mask="url(#48d82f5a12)"><g transform="matrix(1, 0, 0, 1, 701, 91)"><g clip-path="url(#c4d641e5c1)"><g clip-path="url(#9a7ed6b072)"><path fill="#10151d" d="M 0.667969 0.523438 L 15.777344 0.523438 L 15.777344 15.871094 L 0.667969 15.871094 Z M 0.667969 0.523438 " fill-opacity="1" fill-rule="nonzero"/></g></g></g></g><g mask="url(#e19e8e7657)"><g transform="matrix(1, 0, 0, 1, 701, 498)"><g clip-path="url(#c9ee4232ff)"><g clip-path="url(#36fe6dd72c)"><path fill="#10151d" d="M 0.621094 0.828125 L 15.730469 0.828125 L 15.730469 16.175781 L 0.621094 16.175781 Z M 0.621094 0.828125 " fill-opacity="1" fill-rule="nonzero"/></g></g></g></g><g mask="url(#78204bb201)"><g transform="matrix(1, 0, 0, 1, 701, 295)"><g clip-path="url(#31d5724907)"><g clip-path="url(#3715ebdc4b)"><path fill="#10151d" d="M 0.621094 0.21875 L 15.730469 0.21875 L 15.730469 15.566406 L 0.621094 15.566406 Z M 0.621094 0.21875 " fill-opacity="1" fill-rule="nonzero"/></g></g></g></g><g mask="url(#a5230ea502)"><g transform="matrix(1, 0, 0, 1, 701, 702)"><g clip-path="url(#ffb87119e1)"><g clip-path="url(#4b660b6e01)"><path fill="#10151d" d="M 0.578125 0.527344 L 15.6875 0.527344 L 15.6875 15.871094 L 0.578125 15.871094 Z M 0.578125 0.527344 " fill-opacity="1" fill-rule="nonzero"/></g></g></g></g></svg>